<?xml version="1.0" encoding="UTF-8"?>
<svg id="Layer_2" data-name="Layer 2" xmlns="http://www.w3.org/2000/svg" viewBox="0 0 370.98 56.53">
  <defs>
    <style>
      .cls-1 {
        fill: #ff6d00;
      }
    </style>
  </defs>
  <g id="Layer_1-2" data-name="Layer 1">
    <g>
      <path class="cls-1" d="M42.4,3.53h-7.07V0H0v56.53h35.33v-3.53h7.07v-3.53h3.53V7.07h-3.53v-3.53ZM35.33,49.46h-3.53v3.53H10.6V3.53h21.2v3.53h3.53v42.4Z"/>
      <polygon class="cls-1" points="286.19 0 286.19 38.86 282.65 38.86 282.65 31.8 279.12 31.8 279.12 24.73 275.59 24.73 275.59 17.67 272.05 17.67 272.05 10.6 268.52 10.6 268.52 3.53 264.99 3.53 264.99 0 254.39 0 254.39 56.53 264.99 56.53 264.99 14.13 268.52 14.13 268.52 21.2 272.05 21.2 272.05 28.27 275.59 28.27 275.59 35.33 279.12 35.33 279.12 42.4 282.65 42.4 282.65 49.46 286.19 49.46 286.19 56.53 296.79 56.53 296.79 0 286.19 0"/>
      <polygon class="cls-1" points="144.86 3.53 141.33 3.53 141.33 0 113.06 0 113.06 3.53 109.53 3.53 109.53 7.07 106 7.07 106 56.53 116.59 56.53 116.59 31.8 120.13 31.8 120.13 28.27 116.59 28.27 116.59 7.07 120.13 7.07 120.13 3.53 134.26 3.53 134.26 7.07 137.79 7.07 137.79 28.27 134.26 28.27 134.26 31.8 137.79 31.8 137.79 56.53 148.39 56.53 148.39 7.07 144.86 7.07 144.86 3.53"/>
      <rect class="cls-1" x="120.13" y="24.73" width="14.13" height="3.53"/>
      <path class="cls-1" d="M95.4,3.53h-7.07V0h-35.33v56.53h10.6v-24.73h21.2v3.53h3.53v21.2h10.6v-17.67h-3.53v-3.53h-3.53v-3.53h-3.53v-3.53h7.07v-3.53h3.53V7.07h-3.53v-3.53ZM88.33,24.73h-3.53v3.53h-21.2V3.53h21.2v3.53h3.53v17.67Z"/>
      <polygon class="cls-1" points="194.32 3.53 190.79 3.53 190.79 0 162.53 0 162.53 3.53 158.99 3.53 158.99 7.07 155.46 7.07 155.46 49.46 158.99 49.46 158.99 53 162.53 53 162.53 56.53 190.79 56.53 190.79 53 194.32 53 194.32 49.46 197.86 49.46 197.86 35.33 187.26 35.33 187.26 49.46 183.73 49.46 183.73 53 169.59 53 169.59 49.46 166.06 49.46 166.06 7.07 169.59 7.07 169.59 3.53 183.73 3.53 183.73 7.07 187.26 7.07 187.26 21.2 197.86 21.2 197.86 7.07 194.32 7.07 194.32 3.53"/>
      <polygon class="cls-1" points="370.98 21.2 370.98 7.07 367.45 7.07 367.45 3.53 363.92 3.53 363.92 0 335.65 0 335.65 3.53 332.12 3.53 332.12 7.07 328.59 7.07 328.59 49.46 332.12 49.46 332.12 53 335.65 53 335.65 56.53 363.92 56.53 363.92 53 367.45 53 367.45 49.46 370.98 49.46 370.98 35.33 360.38 35.33 360.38 49.46 356.85 49.46 356.85 53 342.72 53 342.72 49.46 339.18 49.46 339.18 7.07 342.72 7.07 342.72 3.53 356.85 3.53 356.85 7.07 360.38 7.07 360.38 21.2 370.98 21.2"/>
      <path class="cls-1" d="M243.79,3.53h-3.53V0h-28.27v3.53h-3.53v3.53h-3.53v42.4h3.53v3.53h3.53v3.53h28.27v-3.53h3.53v-3.53h3.53V7.07h-3.53v-3.53ZM236.72,49.46h-3.53v3.53h-14.13v-3.53h-3.53V7.07h3.53v-3.53h14.13v3.53h3.53v42.4Z"/>
      <polygon class="cls-1" points="303.85 0 303.85 3.53 307.39 3.53 307.39 53 303.85 53 303.85 56.53 321.52 56.53 321.52 53 317.99 53 317.99 3.53 321.52 3.53 321.52 0 303.85 0"/>
    </g>
  </g>
</svg>