<?xml version="1.0" encoding="UTF-8"?>
<svg id="Layer_2" data-name="Layer 2" xmlns="http://www.w3.org/2000/svg" viewBox="0 0 472.12 95.44">
  <defs>
    <style>
      .cls-1 {
        fill: #ff6d00;
      }
    </style>
  </defs>
  <g id="Layer_1-2" data-name="Layer 1">
    <g>
      <rect class="cls-1" x="63.49" y="92.1" width="3.5" height="3.34"/>
      <rect class="cls-1" x="63.49" y="8.03" width="3.5" height="5.66"/>
      <rect class="cls-1" x="63.49" y="19.02" width="3.5" height="38.79"/>
      <rect class="cls-1" x="70.5" y="13.7" width="3.5" height="9.42"/>
      <rect class="cls-1" x="70.5" y="42.19" width="3.5" height="33.39"/>
      <rect class="cls-1" x="42.11" y="23.12" width="3.5" height="38.88"/>
      <rect class="cls-1" x="42.11" y="84.64" width="3.5" height="10.8"/>
      <rect class="cls-1" x="42.11" y="8.03" width="3.5" height="2.42"/>
      <rect class="cls-1" x="35.09" y="19.02" width="3.5" height="22.76"/>
      <rect class="cls-1" x="35.09" y="45.64" width="3.5" height="16.36"/>
      <rect class="cls-1" x="35.09" y="88.96" width="3.5" height="6.47"/>
      <rect class="cls-1" x="35.09" y="72.65" width="3.5" height="2.93"/>
      <rect class="cls-1" x="56.47" y="90.37" width="3.5" height="5.07"/>
      <rect class="cls-1" x="56.47" y="2.99" width="3.5" height="59.01"/>
      <rect class="cls-1" x="56.47" y="72.65" width="3.5" height="2.93"/>
      <rect class="cls-1" x="76.92" y="19.02" width="3.5" height="8.21"/>
      <rect class="cls-1" x="76.92" y="72.65" width="3.5" height="2.93"/>
      <rect class="cls-1" x="28.08" y="13.7" width="3.5" height="27.06"/>
      <rect class="cls-1" x="28.08" y="48.07" width="3.5" height="27.51"/>
      <rect class="cls-1" x="28.08" y="92.02" width="3.5" height="3.42"/>
      <rect class="cls-1" x="21.06" y="10.48" width="3.5" height="30.25"/>
      <rect class="cls-1" x="21.06" y="88.74" width="3.5" height="6.7"/>
      <rect class="cls-1" x="21.06" y="52.29" width="3.5" height="12.7"/>
      <rect class="cls-1" x="14.04" y="82.36" width="3.5" height="10.17"/>
      <rect class="cls-1" x="14.04" y="56.58" width="3.5" height="14.66"/>
      <rect class="cls-1" x="14.04" y="13.7" width="3.5" height="28.73"/>
      <rect class="cls-1" x="7.02" y="20.89" width="3.5" height="23.83"/>
      <rect class="cls-1" x="7.02" y="62" width="3.5" height="26.74"/>
      <rect class="cls-1" y="31.51" width="3.5" height="16.73"/>
      <rect class="cls-1" x="49.45" y="29.57" width="3.5" height="46.02"/>
      <rect class="cls-1" x="49.45" y="8.03" width="3.5" height="5.66"/>
      <rect class="cls-1" x="49.13" y="88.74" width="3.5" height="6.7"/>
      <rect class="cls-1" x="49.45" width="3.5" height="2.99"/>
    </g>
    <g>
      <path class="cls-1" d="M143.53,22.58h-7.07v-3.53h-35.33v56.53h35.33v-3.53h7.07v-3.53h3.53V26.12h-3.53v-3.53ZM136.47,68.51h-3.53v3.53h-21.2V22.58h21.2v3.53h3.53v42.4Z"/>
      <polygon class="cls-1" points="387.32 19.05 387.32 57.92 383.79 57.92 383.79 50.85 380.25 50.85 380.25 43.78 376.72 43.78 376.72 36.72 373.19 36.72 373.19 29.65 369.66 29.65 369.66 22.58 366.12 22.58 366.12 19.05 355.52 19.05 355.52 75.58 366.12 75.58 366.12 33.18 369.66 33.18 369.66 40.25 373.19 40.25 373.19 47.32 376.72 47.32 376.72 54.38 380.25 54.38 380.25 61.45 383.79 61.45 383.79 68.51 387.32 68.51 387.32 75.58 397.92 75.58 397.92 19.05 387.32 19.05"/>
      <polygon class="cls-1" points="245.99 22.58 242.46 22.58 242.46 19.05 214.2 19.05 214.2 22.58 210.66 22.58 210.66 26.12 207.13 26.12 207.13 75.58 217.73 75.58 217.73 50.85 221.26 50.85 221.26 47.32 217.73 47.32 217.73 26.12 221.26 26.12 221.26 22.58 235.39 22.58 235.39 26.12 238.93 26.12 238.93 47.32 235.39 47.32 235.39 50.85 238.93 50.85 238.93 75.58 249.53 75.58 249.53 26.12 245.99 26.12 245.99 22.58"/>
      <rect class="cls-1" x="221.26" y="43.78" width="14.13" height="3.53"/>
      <path class="cls-1" d="M196.53,22.58h-7.07v-3.53h-35.33v56.53h10.6v-24.73h21.2v3.53h3.53v21.2h10.6v-17.67h-3.53v-3.53h-3.53v-3.53h-3.53v-3.53h7.07v-3.53h3.53v-17.67h-3.53v-3.53ZM189.46,43.78h-3.53v3.53h-21.2v-24.73h21.2v3.53h3.53v17.67Z"/>
      <polygon class="cls-1" points="295.46 22.58 291.93 22.58 291.93 19.05 263.66 19.05 263.66 22.58 260.13 22.58 260.13 26.12 256.59 26.12 256.59 68.51 260.13 68.51 260.13 72.05 263.66 72.05 263.66 75.58 291.93 75.58 291.93 72.05 295.46 72.05 295.46 68.51 298.99 68.51 298.99 54.38 288.39 54.38 288.39 68.51 284.86 68.51 284.86 72.05 270.73 72.05 270.73 68.51 267.19 68.51 267.19 26.12 270.73 26.12 270.73 22.58 284.86 22.58 284.86 26.12 288.39 26.12 288.39 40.25 298.99 40.25 298.99 26.12 295.46 26.12 295.46 22.58"/>
      <polygon class="cls-1" points="472.12 40.25 472.12 26.12 468.58 26.12 468.58 22.58 465.05 22.58 465.05 19.05 436.79 19.05 436.79 22.58 433.25 22.58 433.25 26.12 429.72 26.12 429.72 68.51 433.25 68.51 433.25 72.05 436.79 72.05 436.79 75.58 465.05 75.58 465.05 72.05 468.58 72.05 468.58 68.51 472.12 68.51 472.12 54.38 461.52 54.38 461.52 68.51 457.98 68.51 457.98 72.05 443.85 72.05 443.85 68.51 440.32 68.51 440.32 26.12 443.85 26.12 443.85 22.58 457.98 22.58 457.98 26.12 461.52 26.12 461.52 40.25 472.12 40.25"/>
      <path class="cls-1" d="M344.92,22.58h-3.53v-3.53h-28.27v3.53h-3.53v3.53h-3.53v42.4h3.53v3.53h3.53v3.53h28.27v-3.53h3.53v-3.53h3.53V26.12h-3.53v-3.53ZM337.86,68.51h-3.53v3.53h-14.13v-3.53h-3.53V26.12h3.53v-3.53h14.13v3.53h3.53v42.4Z"/>
      <polygon class="cls-1" points="404.99 19.05 404.99 22.58 408.52 22.58 408.52 72.05 404.99 72.05 404.99 75.58 422.65 75.58 422.65 72.05 419.12 72.05 419.12 22.58 422.65 22.58 422.65 19.05 404.99 19.05"/>
    </g>
  </g>
</svg>