<?xml version="1.0" encoding="UTF-8"?>
<svg id="Layer_2" data-name="Layer 2" xmlns="http://www.w3.org/2000/svg" viewBox="0 0 80.42 95.44">
  <defs>
    <style>
      .cls-1 {
        fill: #ff6d00;
      }
    </style>
  </defs>
  <g id="Layer_1-2" data-name="Layer 1">
    <g>
      <rect class="cls-1" x="63.49" y="92.1" width="3.5" height="3.34"/>
      <rect class="cls-1" x="63.49" y="8.03" width="3.5" height="5.66"/>
      <rect class="cls-1" x="63.49" y="19.02" width="3.5" height="38.79"/>
      <rect class="cls-1" x="70.5" y="13.7" width="3.5" height="9.42"/>
      <rect class="cls-1" x="70.5" y="42.19" width="3.5" height="33.39"/>
      <rect class="cls-1" x="42.11" y="23.12" width="3.5" height="38.88"/>
      <rect class="cls-1" x="42.11" y="84.64" width="3.5" height="10.8"/>
      <rect class="cls-1" x="42.11" y="8.03" width="3.5" height="2.42"/>
      <rect class="cls-1" x="35.09" y="19.02" width="3.5" height="22.76"/>
      <rect class="cls-1" x="35.09" y="45.64" width="3.5" height="16.36"/>
      <rect class="cls-1" x="35.09" y="88.96" width="3.5" height="6.47"/>
      <rect class="cls-1" x="35.09" y="72.65" width="3.5" height="2.93"/>
      <rect class="cls-1" x="56.47" y="90.37" width="3.5" height="5.07"/>
      <rect class="cls-1" x="56.47" y="2.99" width="3.5" height="59.01"/>
      <rect class="cls-1" x="56.47" y="72.65" width="3.5" height="2.93"/>
      <rect class="cls-1" x="76.92" y="19.02" width="3.5" height="8.21"/>
      <rect class="cls-1" x="76.92" y="72.65" width="3.5" height="2.93"/>
      <rect class="cls-1" x="28.08" y="13.7" width="3.5" height="27.06"/>
      <rect class="cls-1" x="28.08" y="48.07" width="3.5" height="27.51"/>
      <rect class="cls-1" x="28.08" y="92.02" width="3.5" height="3.42"/>
      <rect class="cls-1" x="21.06" y="10.48" width="3.5" height="30.25"/>
      <rect class="cls-1" x="21.06" y="88.74" width="3.5" height="6.7"/>
      <rect class="cls-1" x="21.06" y="52.29" width="3.5" height="12.7"/>
      <rect class="cls-1" x="14.04" y="82.36" width="3.5" height="10.17"/>
      <rect class="cls-1" x="14.04" y="56.58" width="3.5" height="14.66"/>
      <rect class="cls-1" x="14.04" y="13.7" width="3.5" height="28.73"/>
      <rect class="cls-1" x="7.02" y="20.89" width="3.5" height="23.83"/>
      <rect class="cls-1" x="7.02" y="62" width="3.5" height="26.74"/>
      <rect class="cls-1" y="31.51" width="3.5" height="16.73"/>
      <rect class="cls-1" x="49.45" y="29.57" width="3.5" height="46.02"/>
      <rect class="cls-1" x="49.45" y="8.03" width="3.5" height="5.66"/>
      <rect class="cls-1" x="49.13" y="88.74" width="3.5" height="6.7"/>
      <rect class="cls-1" x="49.45" width="3.5" height="2.99"/>
    </g>
  </g>
</svg>